<svg version="1.2" xmlns="http://www.w3.org/2000/svg" viewBox="0 0 157 356" width="157" height="356">
	<title>aldebaran-icon</title>
	<defs>
		<linearGradient id="g1" x2="1" gradientUnits="userSpaceOnUse" gradientTransform="matrix(-138.489,42.34,-113.368,-370.811,148.423,157.223)">
			<stop offset="0" stop-color="#7932f3"/>
			<stop offset="1" stop-color="#c438ff"/>
		</linearGradient>
	</defs>
	<style>
		.s0 { fill: url(#g1) } 
	</style>
	<path id="Path 3" class="s0" d="m148 218c2.8 27.2-8.2 54.2-28.9 72q-1.5 1.2-1-0.6c6.5-24.3 1.4-43.9-11.8-66-18.6-31-47.1-56-72.2-81.8q-9-9.3-15.6-22.2c-11-21.4-10.8-40.2-2.9-62.8q9.4-27.1 31.2-47.4c0.6-0.5 1.4-0.1 1.4 0.6-0.9 31.9 13.9 57.1 32.9 83.4q16.8 23.2 33.8 46.4c17 23.1 30.2 49.5 33.1 78.4zm-59.1 129.2c6.1-23.5-7-44.5-22.4-60.8q-16.1-16.8-31.6-33.9c-22.7-24.9-13.3-58.8 9.2-79.5 0.4-0.3 1.1 0 1.1 0.5-0.4 20.7 11.7 40.6 24 56.4q16.8 21.4 27.9 40.4c14.5 24.6 15.5 57.3-7.5 77.4-0.3 0.3-0.9 0-0.7-0.5z"/>
</svg>